<svg xmlns="http://www.w3.org/2000/svg" version="1.1" xmlns:xlink="http://www.w3.org/1999/xlink" xmlns:svgjs="http://svgjs.dev/svgjs" width="100%" height="100%" viewBox="0 0 1000 600"><rect width="1000" height="600" x="0" y="0" fill="#202020"/><g><rect width="333.3333333333333" height="333.3333333333333" rx="13.333333333333334" ry="13.333333333333334" y="200.8364034436819" fill="#6366f1" transform="matrix(0.6998323830616955,0,0,0.6998323830616955,0,42.80942727645632)" x="178.61424255371094"/><path d="M353.21245768123816 442.5030741145265L337.34936292340404 442.5030741145265L337.34936292340404 306.22331633568535L284.64103118583523 306.22331633568535L284.64103118583523 292.5030786558326L405.920789418807 292.5030786558326L405.920789418807 306.22331633568535L353.21245768123816 306.22331633568535L353.21245768123816 442.5030741145265Z " fill="#202020" transform="matrix(0.6998323830616955,0,0,0.6998323830616955,0,42.80942727645632)"/><path d="M699.8491739387106 326.289055549704L699.8491739387106 326.289055549704Q710.0558160051313 326.289055549704 717.6277717246886 330.18573451649365Q725.1997274442457 334.10455370468554 729.4285097320686 342.0750334094826Q733.6351517984893 350.04551311427963 733.6351517984893 362.1562142212907L733.6351517984893 362.1562142212907L733.6351517984893 410.77614042055274L722.3214986619579 410.77614042055274L722.3214986619579 363.26322529140145Q722.3214986619579 350.04551311427963 716.0336757837291 343.2706053652022Q709.7237126840981 336.4956976161247 698.2550779977513 336.4956976161247L698.2550779977513 336.4956976161247Q689.64253187229 336.4956976161247 683.3547089940612 340.08241348328335Q677.0447458944302 343.669129350442 673.6351517984892 350.4440370995195Q670.2034174811461 357.218944848597 670.2034174811461 366.7835204943534L670.2034174811461 366.7835204943534L670.2034174811461 410.77614042055274L658.8897643446147 410.77614042055274L658.8897643446147 363.26322529140145Q658.8897643446147 350.04551311427963 652.513380580777 343.2706053652022Q646.1369968169395 336.4956976161247 634.6462219091904 336.4956976161247L634.6462219091904 336.4956976161247Q626.2107975549468 336.4956976161247 619.8344137911092 340.08241348328335Q613.4580300272715 343.669129350442 610.0262957099284 350.4440370995195Q606.5945613925852 357.218944848597 606.5945613925852 366.7835204943534L606.5945613925852 366.7835204943534L606.5945613925852 410.77614042055274L595.2809082560539 410.77614042055274L595.2809082560539 327.0861035201837L606.1074765217365 327.0861035201837L606.1074765217365 349.71340979324646L604.3583990309617 345.7281699408479Q608.1886573335446 336.6506791659402 616.712642573397 331.46986735782207Q625.2366278132495 326.289055549704 636.882384270814 326.289055549704L636.882384270814 326.289055549704Q649.1480669276406 326.289055549704 657.7606130531019 332.4218968781173Q666.3731591785631 338.5547382065306 668.9192846398178 350.8425610847594L668.9192846398178 350.8425610847594L664.4691001379726 349.09348359398444Q668.122236669338 338.8868415275638 677.4432698796701 332.5768784279328Q686.7864433114044 326.289055549704 699.8491739387106 326.289055549704ZM763.4580300272715 442.5030776899254L763.4580300272715 442.5030776899254Q757.5465909128803 442.5030776899254 752.2107975549469 440.5768784279328Q746.8750041970133 438.6728193873424 743.0447458944303 434.8425610847594L743.0447458944303 434.8425610847594L748.3141185881572 426.40713673051584Q751.5023104700759 429.41820684121694 755.2440078870501 431.1008636677852Q758.9857053040242 432.78352049435347 763.6130115770871 432.78352049435347L763.6130115770871 432.78352049435347Q769.192347370445 432.78352049435347 773.2661481084523 429.6617492766413Q777.3178086250576 426.56211828033133 780.9930853778252 418.74662012534975L780.9930853778252 418.74662012534975L786.4174396213674 406.48093746852317L787.6794322412937 404.7097197563461L822.1074765217364 327.0861035201837L833.2661481084525 327.0861035201837L791.3547089940613 420.8278009371579Q787.8344137911091 428.9532621917704 783.6277717246886 433.73555001464865Q779.3989894368657 438.5178378375269 774.461720064172 440.5104577637262Q769.5023104700759 442.5030776899254 763.4580300272715 442.5030776899254ZM793.1037864848362 403.91267178586634L785.7753732007033 413.1672843319918L747.1849672966442 327.0861035201837L758.9857053040242 327.0861035201837L793.1037864848362 403.91267178586634ZM877.1037864848362 410.77614042055274L865.3251886988584 410.77614042055274L865.3251886988584 309.39606661981475L826.092716374135 309.39606661981475L826.092716374135 299.189424553394L916.3362588095594 299.189424553394L916.3362588095594 309.39606661981475L877.1037864848362 309.39606661981475L877.1037864848362 410.77614042055274ZM991.4137495844672 410.77614042055274L980.5650410973823 410.77614042055274L980.5650410973823 392.289055549704L980.1000964479359 389.2558452176007L980.1000964479359 358.3259559187077Q980.1000964479359 347.65436920284054 974.1222366693381 341.9200518596671Q968.1443768907403 336.16359429509146 956.3436388833601 336.16359429509146L956.3436388833601 336.16359429509146Q948.2181776287476 336.16359429509146 940.8676241232125 338.8868415275638Q933.5392108390798 341.5879485386339 928.4469599165706 346.06027326188115L928.4469599165706 346.06027326188115L923.3325687726591 337.60270868623536Q929.7089525364967 332.1783544426929 938.6536019829911 329.23370499619847Q947.5761112080835 326.289055549704 957.4506499534708 326.289055549704L957.4506499534708 326.289055549704Q973.7237126840981 326.289055549704 982.5576610235815 334.34809614010993Q991.4137495844672 342.3849965091136 991.4137495844672 358.8130407895564L991.4137495844672 358.8130407895564L991.4137495844672 410.77614042055274ZM951.7163326102974 411.57318839103243L951.7163326102974 411.57318839103243Q942.3067385143564 411.57318839103243 935.3768492154635 408.47355739472243Q928.4469599165706 405.3517861770103 924.771683163803 399.8610112692612Q921.1185466324376 394.34809614010993 921.1185466324376 387.17466440579256L921.1185466324376 387.17466440579256Q921.1185466324376 380.64329909213944 924.2181776287476 375.30750573420585Q927.3178086250576 369.9717123762723 934.4248196951684 366.6949596087446Q941.5096905438767 363.44034706261914 953.4654101010723 363.44034706261914L953.4654101010723 363.44034706261914L982.3141185881572 363.44034706261914L982.3141185881572 371.8757714168627L953.7975134221057 371.8757714168627Q941.6646720936923 371.8757714168627 936.970945156423 376.1931145902944Q932.2772182191535 380.48831754232395 932.2772182191535 386.8647013061616L932.2772182191535 386.8647013061616Q932.2772182191535 394.0381330404789 937.8565540125115 398.3333359925084Q943.4358898058694 402.6506791659402 953.4654101010723 402.6506791659402L953.4654101010723 402.6506791659402Q963.0299857468289 402.6506791659402 969.9598750457218 398.2669153283018Q976.9119045660169 393.8831514906634 980.1000964479359 385.58056846483316L980.1000964479359 385.58056846483316L982.6462219091906 393.3960666198147Q979.4580300272715 401.698649645645 971.5539709866813 406.6359190183387Q963.672052167493 411.57318839103243 951.7163326102974 411.57318839103243ZM1044.660982056792 411.57318839103243L1044.660982056792 411.57318839103243Q1034.2993584405558 411.57318839103243 1025.0447458944304 408.6285389445379Q1015.7901333483047 405.6838894980435 1010.5429008759801 401.2115647747963L1010.5429008759801 401.2115647747963L1015.6351517984893 392.289055549704Q1020.7495429424008 396.11931385228706 1028.7200226471978 398.90898174896597Q1036.6905023519948 401.698649645645 1045.4580300272714 401.698649645645L1045.4580300272714 401.698649645645Q1057.413749584467 401.698649645645 1062.660982056792 397.9348120072686Q1067.9303547505187 394.1931145902944 1067.9303547505187 387.9717123762723L1067.9303547505187 387.9717123762723Q1067.9303547505187 383.36654632461176 1064.9857053040246 380.7318599777483Q1062.0189156361275 378.0971736308848 1057.2366278132495 376.74662012534975Q1052.4543399903714 375.3960666198147 1046.5650410973822 374.4218968781173Q1040.6757422043934 373.46986735782207 1034.852863975611 372.2078747378959Q1029.029985746829 370.9237418965675 1024.2476979239505 368.4440370995195Q1019.4654101010723 365.9864725238738 1016.5207606545779 361.669129350442Q1013.5761112080835 357.3739263984125 1013.5761112080835 350.2004946640952L1013.5761112080835 350.2004946640952Q1013.5761112080835 343.3370260294088 1017.3842292892642 337.9348120072686Q1021.2144875918472 332.51045776372615 1028.631461761589 329.38868654601396Q1036.0484359313305 326.289055549704 1046.7200226471978 326.289055549704L1046.7200226471978 326.289055549704Q1054.8454839018104 326.289055549704 1062.993085377825 328.4366570257188Q1071.1185466324378 330.58425850173353 1076.3657791047622 334.10455370468554L1076.3657791047622 334.10455370468554L1071.4285097320685 343.1820444795933Q1065.849173938711 339.3517861770103 1059.472790174873 337.69126957184426Q1053.0964064110353 336.00861274527597 1046.7200226471978 336.00861274527597L1046.7200226471978 336.00861274527597Q1035.4063695106665 336.00861274527597 1030.0705761527329 339.92743193346786Q1024.7347827947992 343.82411090025755 1024.7347827947992 349.89053156446414L1024.7347827947992 349.89053156446414Q1024.7347827947992 354.6728193873424 1027.6794322412939 357.3739263984125Q1030.624081687788 360.0750334094826 1035.4949303962753 361.60270868623536Q1040.3436388833602 363.1082437415859 1046.1665171121426 364.06027326188115Q1051.9893953409246 365.03444300357853 1057.812273569707 366.3849965091136Q1063.613011577087 367.73555001464865 1068.4838602855743 370.0381330404789Q1073.3547089940612 372.3628562877114 1076.2993584405558 376.59163857553426Q1079.2440078870504 380.79828064195493 1079.2440078870504 387.6617492766413L1079.2440078870504 387.6617492766413Q1079.2440078870504 394.99016256077414 1075.1702071490427 400.3259559187077Q1071.1185466324378 405.6838894980435 1063.391609363065 408.6285389445379Q1055.64253187229 411.57318839103243 1044.660982056792 411.57318839103243ZM1132.004155488526 367.73555001464865L1108.8897643446148 389.1008636677852L1109.221867665648 374.599018649335L1161.3399488464597 327.0861035201837L1175.1997274442456 327.0861035201837L1138.3805392523636 362.3111957711062L1132.004155488526 367.73555001464865ZM1111.2809082560539 410.77614042055274L1099.9672551195226 410.77614042055274L1099.9672551195226 292.5030776899254L1111.2809082560539 292.5030776899254L1111.2809082560539 410.77614042055274ZM1178.7200226471978 410.77614042055274L1164.8381038280095 410.77614042055274L1129.9451148981202 367.2484651438L1137.2735281822534 358.48093746852317L1178.7200226471978 410.77614042055274ZM1215.6941923888953 411.57318839103243L1215.6941923888953 411.57318839103243Q1205.3325687726592 411.57318839103243 1196.1000964479358 408.6285389445379Q1186.8454839018104 405.6838894980435 1181.5761112080836 401.2115647747963L1181.5761112080836 401.2115647747963L1186.6905023519948 392.289055549704Q1191.782753274504 396.11931385228706 1199.7532329793012 398.90898174896597Q1207.7237126840982 401.698649645645 1216.4912403593748 401.698649645645L1216.4912403593748 401.698649645645Q1228.4469599165704 401.698649645645 1233.7163326102977 397.9348120072686Q1238.9635650826222 394.1931145902944 1238.9635650826222 387.9717123762723L1238.9635650826222 387.9717123762723Q1238.9635650826222 383.36654632461176 1236.0189156361275 380.7318599777483Q1233.0742661896334 378.0971736308848 1228.2919783667553 376.74662012534975Q1223.5096905438768 375.3960666198147 1217.620391650888 374.4218968781173Q1211.7089525364968 373.46986735782207 1205.8860743077144 372.2078747378959Q1200.0853363003343 370.9237418965675 1195.3030484774558 368.4440370995195Q1190.5207606545778 365.9864725238738 1187.5539709866812 361.669129350442Q1184.6093215401866 357.3739263984125 1184.6093215401866 350.2004946640952L1184.6093215401866 350.2004946640952Q1184.6093215401866 343.3370260294088 1188.43957984277 337.9348120072686Q1192.2698381453529 332.51045776372615 1199.6868123150944 329.38868654601396Q1207.0816462634339 326.289055549704 1217.7753732007036 326.289055549704L1217.7753732007036 326.289055549704Q1225.9008344553158 326.289055549704 1234.0262957099285 328.4366570257188Q1242.1517569645412 330.58425850173353 1247.421129658268 334.10455370468554L1247.421129658268 334.10455370468554L1242.4838602855743 343.1820444795933Q1236.9045244922163 339.3517861770103 1230.5281407283787 337.69126957184426Q1224.1517569645412 336.00861274527597 1217.7753732007036 336.00861274527597L1217.7753732007036 336.00861274527597Q1206.461720064172 336.00861274527597 1201.1037864848363 339.92743193346786Q1195.7679931269026 343.82411090025755 1195.7679931269026 349.89053156446414L1195.7679931269026 349.89053156446414Q1195.7679931269026 354.6728193873424 1198.7126425733973 357.3739263984125Q1201.6794322412939 360.0750334094826 1206.5281407283787 361.60270868623536Q1211.398989436866 363.1082437415859 1217.221867665648 364.06027326188115Q1223.0226056730285 365.03444300357853 1228.8454839018104 366.3849965091136Q1234.6683621305929 367.73555001464865 1239.5392108390797 370.0381330404789Q1244.3879193261646 372.3628562877114 1247.3325687726592 376.59163857553426Q1250.2993584405558 380.79828064195493 1250.2993584405558 387.6617492766413L1250.2993584405558 387.6617492766413Q1250.2993584405558 394.99016256077414 1246.2255577025485 400.3259559187077Q1242.1517569645412 405.6838894980435 1234.4248196951685 408.6285389445379Q1226.6978824257958 411.57318839103243 1215.6941923888953 411.57318839103243Z " fill="#6366f1" transform="matrix(0.6998323830616955,0,0,0.6998323830616955,0,42.80942727645632)"/></g></svg>